REM DIRINDEX 1\5,1\2\6,1\2\7,1\3\8,1\3\9,1\4\10,1\4\11,1\4\12
REM DIRNAME folder01,folder02,folder03,folder04,folder05,folder06,folder07,folder08,folder09,folder10,folder11,folder12
TITLE ""
FILE "EJE_DB3000_5th_6C_48.mp3" MP3
  TRACK 01 AUDIO
    TITLE "0:"
    INDEX 01 00:00:00
  TRACK 02 AUDIO
    TITLE "10:cjc026_12021"
    INDEX 01 00:00:05
  TRACK 03 AUDIO
    TITLE "0:"
    INDEX 01 00:01:07
  TRACK 04 AUDIO
    TITLE "11:cjc026_12022"
    INDEX 01 00:01:34
  TRACK 05 AUDIO
    TITLE "0:"
    INDEX 01 00:02:47
  TRACK 06 AUDIO
    TITLE "12:cjc026_12023"
    INDEX 01 00:02:73
  TRACK 07 AUDIO
    TITLE "0:"
    INDEX 01 00:04:01
  TRACK 08 AUDIO
    TITLE "10:cjc026_12024"
    INDEX 01 00:04:27
  TRACK 09 AUDIO
    TITLE "0:"
    INDEX 01 00:05:36
  TRACK 10 AUDIO
    TITLE "11:cjc026_12025"
    INDEX 01 00:05:61
  TRACK 11 AUDIO
    TITLE "0:"
    INDEX 01 00:07:15
  TRACK 12 AUDIO
    TITLE "12:cjc026_12026"
    INDEX 01 00:07:43
  TRACK 13 AUDIO
    TITLE "0:"
    INDEX 01 00:08:52
  TRACK 14 AUDIO
    TITLE "10:cjc026_12027"
    INDEX 01 00:09:02
  TRACK 15 AUDIO
    TITLE "0:"
    INDEX 01 00:10:21
  TRACK 16 AUDIO
    TITLE "11:cjc026_12028"
    INDEX 01 00:10:47
  TRACK 17 AUDIO
    TITLE "0:"
    INDEX 01 00:11:54
  TRACK 18 AUDIO
    TITLE "12:cjc026_12029"
    INDEX 01 00:12:05
  TRACK 19 AUDIO
    TITLE "0:"
    INDEX 01 00:13:26
  TRACK 20 AUDIO
    TITLE "10:cjc026_12030"
    INDEX 01 00:13:49
  TRACK 21 AUDIO
    TITLE "0:"
    INDEX 01 00:14:49
  TRACK 22 AUDIO
    TITLE "11:cjc026_12031"
    INDEX 01 00:14:74
  TRACK 23 AUDIO
    TITLE "0:"
    INDEX 01 00:16:00
  TRACK 24 AUDIO
    TITLE "12:cjc026_12032"
    INDEX 01 00:16:26
  TRACK 25 AUDIO
    TITLE "0:"
    INDEX 01 00:17:25
  TRACK 26 AUDIO
    TITLE "10:cjc026_12033"
    INDEX 01 00:17:51
  TRACK 27 AUDIO
    TITLE "0:"
    INDEX 01 00:18:52
  TRACK 28 AUDIO
    TITLE "11:cjc026_12034"
    INDEX 01 00:19:03
  TRACK 29 AUDIO
    TITLE "0:"
    INDEX 01 00:20:12
  TRACK 30 AUDIO
    TITLE "12:cjc026_12035"
    INDEX 01 00:20:37
  TRACK 31 AUDIO
    TITLE "0:"
    INDEX 01 00:21:41
  TRACK 32 AUDIO
    TITLE "10:cjc026_12036"
    INDEX 01 00:21:66
  TRACK 33 AUDIO
    TITLE "0:"
    INDEX 01 00:23:01
  TRACK 34 AUDIO
    TITLE "11:cjc026_12037"
    INDEX 01 00:23:26
  TRACK 35 AUDIO
    TITLE "0:"
    INDEX 01 00:24:27
  TRACK 36 AUDIO
    TITLE "12:cjc026_12038"
    INDEX 01 00:24:53
  TRACK 37 AUDIO
    TITLE "0:"
    INDEX 01 00:25:64
  TRACK 38 AUDIO
    TITLE "10:cjc026_12039"
    INDEX 01 00:26:15
  TRACK 39 AUDIO
    TITLE "0:"
    INDEX 01 00:27:32
  TRACK 40 AUDIO
    TITLE "11:cjc026_12040"
    INDEX 01 00:27:57
  TRACK 41 AUDIO
    TITLE "0:"
    INDEX 01 00:28:72
  TRACK 42 AUDIO
    TITLE "12:cjc026_12041"
    INDEX 01 00:29:23
  TRACK 43 AUDIO
    TITLE "0:"
    INDEX 01 00:30:42
  TRACK 44 AUDIO
    TITLE "10:cjc026_12042"
    INDEX 01 00:30:67
  TRACK 45 AUDIO
    TITLE "0:"
    INDEX 01 00:31:59
  TRACK 46 AUDIO
    TITLE "11:cjc026_12043"
    INDEX 01 00:32:09
  TRACK 47 AUDIO
    TITLE "0:"
    INDEX 01 00:33:21
  TRACK 48 AUDIO
    TITLE "12:cjc026_12044"
    INDEX 01 00:33:46
  TRACK 49 AUDIO
    TITLE "0:"
    INDEX 01 00:34:38
  TRACK 50 AUDIO
    TITLE "10:cjc026_12045"
    INDEX 01 00:34:63
  TRACK 51 AUDIO
    TITLE "0:"
    INDEX 01 00:35:64
  TRACK 52 AUDIO
    TITLE "11:cjc026_12046"
    INDEX 01 00:36:15
  TRACK 53 AUDIO
    TITLE "0:"
    INDEX 01 00:37:05
  TRACK 54 AUDIO
    TITLE "12:cjc026_12047"
    INDEX 01 00:37:30
  TRACK 55 AUDIO
    TITLE "0:"
    INDEX 01 00:38:31
  TRACK 56 AUDIO
    TITLE "10:cjc026_12048"
    INDEX 01 00:38:57
  TRACK 57 AUDIO
    TITLE "0:"
    INDEX 01 00:39:70
  TRACK 58 AUDIO
    TITLE "11:cjc026_12049"
    INDEX 01 00:40:23
  TRACK 59 AUDIO
    TITLE "0:"
    INDEX 01 00:41:18
  TRACK 60 AUDIO
    TITLE "12:cjc026_12050"
    INDEX 01 00:41:44
  TRACK 61 AUDIO
    TITLE "0:"
    INDEX 01 00:42:57
  TRACK 62 AUDIO
    TITLE "10:cjc026_12051"
    INDEX 01 00:43:09
  TRACK 63 AUDIO
    TITLE "0:"
    INDEX 01 00:44:18
  TRACK 64 AUDIO
    TITLE "11:cjc026_12052"
    INDEX 01 00:44:48
  TRACK 65 AUDIO
    TITLE "0:"
    INDEX 01 00:45:55
  TRACK 66 AUDIO
    TITLE "12:cjc026_12053"
    INDEX 01 00:46:06
  TRACK 67 AUDIO
    TITLE "0:"
    INDEX 01 00:47:15
